<svg width="16" height="16" viewBox="0 0 16 16" fill="none" xmlns="http://www.w3.org/2000/svg">
  <path fill-rule="evenodd" clip-rule="evenodd" d="M8 0C3.58 0 0 3.58 0 8C0 11.54 2.29 14.47 5.47 15.54C5.87 15.61 6.02 15.35 6.02 15.13C6.02 14.92 6.01 14.33 6.01 13.58C4 13.91 3.48 12.97 3.48 12.97C3.09 12.09 2.5 11.84 2.5 11.84C1.76 11.34 2.53 11.35 2.53 11.35C3.32 11.41 3.72 12.18 3.72 12.18C4.42 13.29 5.52 12.96 5.97 12.77C6.05 12.22 6.27 11.88 6.5 11.68C4.73 11.48 2.88 10.79 2.88 7.69C2.88 6.81 3.22 6.11 3.75 5.57C3.67 5.37 3.37 4.53 3.82 3.41C3.82 3.41 4.47 3.22 6 4.29C6.66 4.08 7.38 4 8.1 4C8.82 4 9.54 4.08 10.2 4.29C11.73 3.22 12.38 3.41 12.38 3.41C12.83 4.53 12.53 5.37 12.45 5.57C12.98 6.11 13.32 6.81 13.32 7.69C13.32 10.8 11.47 11.47 9.7 11.67C9.98 11.92 10.23 12.38 10.23 13.08C10.23 14.08 10.22 14.91 10.22 15.13C10.22 15.35 10.37 15.61 10.77 15.54C13.95 14.47 16.24 11.54 16.24 8C16.24 3.58 12.66 0 8 0Z" fill="white"/>
</svg>